<?xml version="1.0" encoding="UTF-8"?>
<svg version="1.1" xmlns="http://www.w3.org/2000/svg" width="1024" height="1024">
<path d="M0 0 C1.90635973 1.63362908 3.80116728 3.28078631 5.6875 4.9375 C6.91036513 5.98955329 8.13438832 7.04026151 9.359375 8.08984375 C14.94631055 12.88942987 20.48807045 17.73189792 25.9375 22.6875 C29.14490789 25.60045733 32.42647059 28.35970501 35.8125 31.0625 C41.40068014 35.57420351 46.56862122 40.47620667 51.77490234 45.41943359 C56.3662148 49.75743226 61.09396786 53.8197225 66.03515625 57.7578125 C70.14855796 61.1381927 74.02061923 64.77028743 77.92578125 68.38671875 C82.42722945 72.54435054 87.04510154 76.55053883 91.7265625 80.50390625 C103.21141974 90.22198975 114.29976255 100.3733245 124.83544922 111.11816406 C126.60237659 112.85388022 128.42525306 114.45952457 130.3125 116.0625 C136.04487383 121.04602647 141.29625876 126.4998504 146.62109375 131.91015625 C147.41644531 132.71324219 148.21179688 133.51632813 149.03125 134.34375 C149.73443359 135.05853516 150.43761719 135.77332031 151.16210938 136.50976562 C153.09243487 138.3654459 155.03367382 140.09343629 157.07006836 141.82446289 C163.77545364 147.65279176 169.94932317 154.05585649 176.22265625 160.33984375 C177.62920304 161.74571566 179.03589815 163.1514392 180.44273376 164.55702209 C183.38019764 167.49301768 186.31586082 170.43079869 189.25024414 173.36987305 C192.9945206 177.11984623 196.74326934 180.86531131 200.49338627 184.60944271 C203.3958344 187.50826172 206.29587735 190.40947755 209.19521904 193.31140327 C210.57585895 194.69270595 211.95723012 196.07327815 213.33937263 197.45307732 C226.11557483 210.21236392 226.11557483 210.21236392 231.38963318 216.41725159 C233.04341708 218.35440131 234.80668019 220.15498955 236.625 221.9375 C237.29273438 222.5975 237.96046875 223.2575 238.6484375 223.9375 C239.32132813 224.5975 239.99421875 225.2575 240.6875 225.9375 C245.30575953 230.46728713 249.7194728 235.06709484 253.94140625 239.96875 C256.87362958 243.27488101 260.03160669 246.34667665 263.1875 249.4375 C267.63280305 253.79114731 271.87727122 258.22492994 275.94140625 262.9375 C278.85132948 266.27056643 281.89828334 269.47269835 284.9375 272.6875 C293.02822308 281.28389328 301.09398533 289.89642923 308.8203125 298.82421875 C310.7263775 300.98150153 312.67534596 303.09569837 314.63256836 305.20654297 C319.38871727 310.34029291 323.92618951 315.58064455 328.31640625 321.03515625 C331.00580412 324.32712103 333.77898901 327.53774497 336.5625 330.75 C341.07489295 335.97107463 345.39298424 341.30985804 349.6171875 346.76586914 C352.23292774 350.13063672 354.9179592 353.40718456 357.7097168 356.62719727 C390.14412463 394.03710531 390.14412463 394.03710531 389.05078125 409.78125 C385.79127889 429.12797369 371.27417048 445.77801253 359.6875 460.9375 C358.7907959 462.1145752 358.7907959 462.1145752 357.87597656 463.31542969 C351.19686054 472.06077306 344.37041625 480.64547086 337.19921875 488.9921875 C334.81218504 491.79129079 332.49389849 494.63435091 330.1875 497.5 C326.61037184 501.89675433 322.84993227 506.08996078 318.9909668 510.23754883 C315.38353634 514.13081565 311.92840315 518.13629192 308.5 522.1875 C304.66083371 526.71651648 300.72703222 531.02780613 296.46484375 535.16796875 C294.0835122 537.53883291 291.91739145 540.06731793 289.7265625 542.61328125 C287.13996918 545.56160122 284.47921232 548.43672342 281.8125 551.3125 C278.3220961 555.0767977 274.8522398 558.85409478 271.4375 562.6875 C267.21428442 567.39800968 262.89507401 572.01533126 258.5625 576.625 C257.55848145 577.69476074 257.55848145 577.69476074 256.53417969 578.78613281 C253.44777724 582.06134331 250.33962792 585.29940011 247.1328125 588.45703125 C244.7946642 590.77332218 242.60188317 593.15696071 240.46435547 595.65893555 C236.75676044 599.91883021 232.82859721 603.90751125 228.8125 607.875 C228.08434082 608.59937256 227.35618164 609.32374512 226.60595703 610.07006836 C223.52693049 613.13292424 220.44191677 616.18972311 217.35742188 619.24707031 C215.09034542 621.49594117 212.82637034 623.74790238 210.5625 626 C209.87687988 626.67732178 209.19125977 627.35464355 208.48486328 628.05249023 C204.57871639 631.93901546 200.86344964 635.92837841 197.28025818 640.11521912 C194.57381087 643.2116761 191.668239 646.10456292 188.75 649 C188.14099854 649.60706787 187.53199707 650.21413574 186.90454102 650.83959961 C183.19995036 654.50868773 179.44069087 658.06936627 175.43359375 661.41015625 C171.37390293 664.96125046 167.68439181 668.94565141 163.88671875 672.7734375 C162.04955135 674.61986349 160.21230955 676.46621546 158.375 678.3125 C157.00698242 679.69308594 157.00698242 679.69308594 155.61132812 681.1015625 C150.98742646 685.74203729 146.3176335 690.23956561 141.34301758 694.50244141 C139.35789986 696.22320854 137.51184114 698.04800382 135.6875 699.9375 C133.18810236 702.47564799 130.64968208 704.87878303 127.9375 707.1875 C124.3423326 710.27311612 121.01412213 713.56947623 117.6875 716.9375 C113.85763262 720.81479608 109.96698683 724.4999362 105.8125 728.03125 C102.99354337 730.56001992 100.34833073 733.24415486 97.6875 735.9375 C93.86741565 739.79948548 90.00742796 743.51728119 85.8671875 747.0390625 C82.97123833 749.56134081 80.18108367 752.19112881 77.375 754.8125 C72.45070433 759.40161551 67.36298257 763.70149374 62.11328125 767.91796875 C59.34877397 770.21949896 56.85067926 772.68359916 54.3515625 775.265625 C51.96341618 777.66498328 49.40920625 779.85137399 46.84765625 782.0625 C44.47795127 784.11938679 42.14322744 786.21156259 39.8125 788.3125 C38.96429687 789.075625 38.11609375 789.83875 37.2421875 790.625 C35.59412482 792.11682432 33.95294101 793.61630038 32.3203125 795.125 C25.41055203 801.46838667 18.1201567 807.22826707 10.6875 812.9375 C10.14770508 813.35596191 9.60791016 813.77442383 9.05175781 814.20556641 C-4.57479485 824.76128714 -17.04940309 833.13387114 -34.84765625 831.4921875 C-54.17032769 828.39881733 -70.27429592 811.62139643 -84.58740234 799.40820312 C-86.33297416 797.9200451 -88.08233315 796.43642806 -89.83203125 794.953125 C-95.48296982 790.14963249 -101.06389045 785.29604298 -106.5 780.25 C-111.13719119 775.9528695 -115.93922063 771.94610138 -120.86328125 767.984375 C-123.57237698 765.72031414 -125.99189146 763.28967041 -128.4375 760.75 C-130.77851973 758.48701427 -133.27564131 756.47801677 -135.8125 754.4375 C-139.66954565 751.33292028 -143.22738016 748.14323853 -146.66796875 744.58984375 C-148.32091603 742.92904399 -150.03501638 741.40127609 -151.8125 739.875 C-155.92483301 736.32600028 -159.90278163 732.64149627 -163.875 728.9375 C-164.50019531 728.35605225 -165.12539063 727.77460449 -165.76953125 727.17553711 C-169.55187155 723.64002232 -173.23674294 720.03135026 -176.84741211 716.3203125 C-178.28320289 714.83185688 -178.28320289 714.83185688 -180.3125 713.9375 C-180.3125 713.2775 -180.3125 712.6175 -180.3125 711.9375 C-181.19083496 711.54921021 -181.19083496 711.54921021 -182.08691406 711.15307617 C-184.4813396 709.84528276 -186.02343329 708.44013899 -187.921875 706.48828125 C-188.59476562 705.80443359 -189.26765625 705.12058594 -189.9609375 704.41601562 C-190.65445312 703.70123047 -191.34796875 702.98644531 -192.0625 702.25 C-196.68583564 697.5080046 -201.36181324 692.96023202 -206.38378906 688.64135742 C-210.11492108 685.34520928 -213.54488382 681.74547271 -217.0234375 678.1875 C-219.86349674 675.30888792 -222.73311423 672.54333009 -225.81811523 669.92749023 C-231.39046861 665.07492811 -236.56909341 659.82520984 -241.78515625 654.59765625 C-242.87781989 653.50566809 -243.97063178 652.41382825 -245.06358337 651.3221283 C-247.34194838 649.04522878 -249.61851783 646.76655347 -251.89379883 644.48657227 C-254.79059895 641.58407559 -257.6918668 638.68609294 -260.59450626 635.78943729 C-262.84843465 633.5391457 -265.09994726 631.28644908 -267.35076714 629.03304863 C-268.41880638 627.96434872 -269.48757108 626.89637326 -270.55711555 625.82917976 C-275.82733598 620.56800759 -281.00610853 615.27736979 -285.85325623 609.61912537 C-287.84223658 607.32703417 -289.9632009 605.19115397 -292.125 603.0625 C-293.39730469 601.80179688 -293.39730469 601.80179688 -294.6953125 600.515625 C-295.55898438 599.66484375 -296.42265625 598.8140625 -297.3125 597.9375 C-302.61375064 592.71537251 -307.79217974 587.48600876 -312.63671875 581.8359375 C-315.53893565 578.54811136 -318.68070862 575.50471837 -321.8125 572.4375 C-326.24177059 568.09955458 -330.46858097 563.68207173 -334.51757812 558.98632812 C-337.68095663 555.37546408 -341.00508451 551.9159887 -344.3125 548.4375 C-348.8883765 543.62494023 -353.38067881 538.76804365 -357.73144531 533.75048828 C-359.83896048 531.33381015 -362.01174232 528.98023937 -364.1875 526.625 C-368.31156676 522.10846163 -372.19186865 517.44616984 -376.03125 512.6875 C-378.37968968 509.85650422 -380.82159902 507.14366402 -383.3125 504.4375 C-387.37876979 500.0141002 -391.21870903 495.46258356 -394.98828125 490.78515625 C-396.98535505 488.3383213 -399.0282097 485.94126151 -401.09619141 483.55444336 C-408.99851883 474.39643121 -416.15480442 464.68155564 -423.3125 454.9375 C-423.79638184 454.28072266 -424.28026367 453.62394531 -424.77880859 452.94726562 C-429.79571942 446.11525603 -434.585692 439.13977921 -439.25 432.0625 C-439.71116211 431.37260986 -440.17232422 430.68271973 -440.64746094 429.97192383 C-446.80928637 420.49280728 -448.5060302 412.322842 -447.3125 400.9375 C-445.03901415 391.69428733 -439.37481552 384.26167501 -433.72021484 376.80126953 C-432.29175049 374.91002832 -430.88797476 373.00245347 -429.48828125 371.08984375 C-422.60177534 361.7273038 -415.31421888 352.73559678 -407.87109375 343.81201172 C-405.77045261 341.28558273 -403.69731437 338.73718679 -401.625 336.1875 C-397.93894133 331.67395877 -394.18346498 327.2230442 -390.40649414 322.78564453 C-387.40509262 319.25266251 -384.4707184 315.67304325 -381.5625 312.0625 C-378.53901617 308.34501366 -375.40465912 304.91264613 -371.96484375 301.58203125 C-370.30404399 299.92908397 -368.77627609 298.21498362 -367.25 296.4375 C-363.71416164 292.33239968 -360.01922361 288.3874698 -356.3125 284.4375 C-350.97915739 278.76303294 -350.97915739 278.76303294 -345.8125 272.9375 C-340.81546854 267.14293734 -335.52019027 261.61421647 -330.28320312 256.03759766 C-328.26402251 253.88583952 -326.24901472 251.73022829 -324.234375 249.57421875 C-317.55215938 242.43520795 -310.84518709 235.35102503 -303.83984375 228.52734375 C-301.97818734 226.61964947 -300.28044353 224.72842692 -298.56835938 222.69775391 C-292.61472316 215.87517919 -286.09620944 209.57771245 -279.69140625 203.18359375 C-278.26311408 201.75462673 -276.83497027 200.32551139 -275.40696716 198.89625549 C-272.42389324 195.91171313 -269.43903338 192.92897176 -266.45288086 189.94750977 C-262.64237361 186.14269925 -258.83637415 182.33341621 -255.03170872 178.52276516 C-252.08656638 175.57399412 -249.13902767 172.62762767 -246.19077873 169.68196297 C-244.7871473 168.27899442 -243.38424668 166.8752943 -241.98211861 165.47082329 C-229.0237429 152.49554469 -229.0237429 152.49554469 -222.83848572 147.24110413 C-220.8214867 145.51804197 -218.951421 143.67371609 -217.09375 141.78125 C-216.38863281 141.06839844 -215.68351563 140.35554687 -214.95703125 139.62109375 C-214.24933594 138.90050781 -213.54164063 138.17992187 -212.8125 137.4375 C-208.08903144 132.62799376 -203.3118045 128.00056926 -198.20117188 123.60351562 C-195.26726751 121.01549036 -192.54555766 118.23424465 -189.8125 115.4375 C-185.81945379 111.39933785 -181.79921178 107.48765132 -177.46875 103.80859375 C-174.52141287 101.25103128 -171.67169947 98.59278946 -168.8125 95.9375 C-164.68409209 92.10922247 -160.527623 88.32890117 -156.26953125 84.64453125 C-153.9269085 82.60116569 -151.61976578 80.52069141 -149.3125 78.4375 C-146.37571535 75.78636006 -143.42647458 73.15459829 -140.4375 70.5625 C-137.58988959 68.08731348 -134.80539914 65.55242462 -132.03833008 62.98754883 C-126.84954999 58.18086586 -121.54014738 53.62072838 -116.02734375 49.18359375 C-113.20576505 46.8491941 -110.50659288 44.41759402 -107.8125 41.9375 C-103.42221431 37.90116945 -98.9007438 34.09719471 -94.26171875 30.3515625 C-90.89881827 27.5988837 -87.60313381 24.77576089 -84.3125 21.9375 C-79.2150516 17.54233593 -74.05162516 13.24586041 -68.8125 9.01953125 C-66.44950938 7.05160312 -64.23234512 4.98834143 -62 2.875 C-42.95289884 -14.07081954 -20.35352837 -16.37917076 0 0 Z M-66.64746094 47.51074219 C-68.37812325 48.99373201 -70.11436994 50.46997966 -71.8515625 51.9453125 C-77.31195558 56.59188628 -82.71979208 61.27291705 -88 66.125 C-91.41033749 69.25775188 -94.88006494 72.23767084 -98.5 75.125 C-104.08633253 79.62777665 -109.2831212 84.50116783 -114.47924805 89.44604492 C-118.39250787 93.16613035 -122.37495961 96.77754622 -126.45288086 100.31640625 C-129.0079063 102.54370951 -131.50574764 104.83000318 -134 107.125 C-134.50490967 107.5893042 -135.00981934 108.0536084 -135.5300293 108.53198242 C-137.12511607 109.99948188 -138.71884012 111.46845128 -140.3125 112.9375 C-141.35674496 113.89846561 -142.40101576 114.85940315 -143.4453125 115.8203125 C-146.15445588 118.31459711 -148.85734711 120.81556677 -151.55908203 123.31787109 C-153.41900095 125.03587473 -155.28560689 126.74644018 -157.15234375 128.45703125 C-182.38115103 151.65582597 -203.21863648 180.46512069 -205.56640625 215.75390625 C-206.37257607 236.19468193 -199.71656061 254.19433197 -192.3125 272.9375 C-186.27935978 288.36268494 -181.83868388 303.74874106 -178.3125 319.9375 C-174.72156882 316.51395858 -172.50019275 312.98061387 -170.3125 308.5625 C-169.9825 307.93472656 -169.6525 307.30695313 -169.3125 306.66015625 C-162.57320953 293.20790065 -160.77804216 278.04701995 -158.375 263.375 C-156.4610152 251.70784757 -154.48600277 240.09792977 -151.75390625 228.58984375 C-151.55740982 227.76149521 -151.36091339 226.93314667 -151.15846252 226.07969666 C-145.9204767 204.69591795 -137.11179641 182.9234394 -124.3125 164.9375 C-123.55778611 163.83779342 -122.80394082 162.73749043 -122.05078125 161.63671875 C-114.07485598 150.10462819 -105.28268469 139.52658685 -95.11328125 129.86328125 C-93.08483194 128.13345511 -93.08483194 128.13345511 -93.3125 125.9375 C-92.45785156 125.57978516 -92.45785156 125.57978516 -91.5859375 125.21484375 C-88.8323864 123.66774545 -87.09811331 121.80440839 -84.9375 119.5 C-79.41072519 113.86803035 -73.43562689 109.06796217 -67.14355469 104.31982422 C-65.94506396 103.41504362 -64.75023546 102.50538639 -63.55957031 101.59033203 C-47.81989084 89.49614261 -30.70182177 79.4561245 -13.3125 69.9375 C-13.67375977 70.68805664 -14.03501953 71.43861328 -14.40722656 72.21191406 C-28.35016444 101.44540162 -38.7478159 131.18793215 -45.3125 162.9375 C-54.10237563 204.93691718 -63.66914396 238.64340021 -94.3125 269.9375 C-94.89531738 270.53546387 -95.47813477 271.13342773 -96.07861328 271.74951172 C-97.77524301 273.4852321 -99.47880091 275.21366405 -101.1875 276.9375 C-101.68612549 277.44095947 -102.18475098 277.94441895 -102.69848633 278.46313477 C-106.09712631 281.84608957 -109.65008895 285.01037354 -113.27246094 288.15136719 C-123.66869265 297.25366867 -133.50729444 307.02224747 -143.3125 316.75 C-144.17190186 317.59643066 -145.03130371 318.44286133 -145.91674805 319.31494141 C-151.04492167 324.4356649 -155.76235723 329.74500639 -160.28637695 335.40722656 C-162.31246029 337.93745041 -164.39745991 340.40817899 -166.5 342.875 C-176.94772297 355.70298682 -185.93832327 369.51510936 -194.13769531 383.86645508 C-194.64268555 384.74712646 -195.14767578 385.62779785 -195.66796875 386.53515625 C-196.10778076 387.31383057 -196.54759277 388.09250488 -197.00073242 388.89477539 C-198.26681844 390.86636327 -199.59151937 392.35817682 -201.3125 393.9375 C-201.2403125 393.13570313 -201.168125 392.33390625 -201.09375 391.5078125 C-197.98630446 353.44160462 -208.44050484 326.55455218 -228.66821289 294.47973633 C-241.05795744 274.70641147 -249.3372069 254.38844993 -249.93457031 230.83911133 C-250.05446184 227.03762112 -250.15330731 225.17628904 -252.3125 221.9375 C-258.19226574 227.79398132 -264.0692404 233.65324388 -269.94278049 239.51596832 C-272.67088474 242.2388787 -275.39990073 244.9608614 -278.13110352 247.68066406 C-280.77230293 250.31090927 -283.41097235 252.94366925 -286.04798698 255.57810974 C-287.04889205 256.57718295 -288.0506691 257.57538345 -289.05337715 258.57264709 C-294.15426519 263.64696546 -299.16266334 268.73678904 -303.81724548 274.22692871 C-305.40898143 276.04787477 -307.08590268 277.744596 -308.8125 279.4375 C-311.84844925 282.42622337 -314.65758659 285.55456479 -317.4375 288.78125 C-319.48609094 291.13712958 -321.58453002 293.4425746 -323.6875 295.75 C-326.75996773 299.14833552 -329.69692622 302.61340523 -332.5625 306.1875 C-336.14101452 310.61685014 -339.912692 314.79430531 -343.8125 318.9375 C-348.44799537 323.86696337 -352.8544504 328.89808168 -357.0859375 334.18359375 C-359.07934875 336.64912871 -361.12218834 339.06296522 -363.19067383 341.46557617 C-391.3865343 372.21457118 -391.3865343 372.21457118 -403.62109375 410.140625 C-401.05355476 433.41097842 -381.41421795 453.39149436 -367.3125 470.9375 C-366.7983252 471.5778418 -366.28415039 472.21818359 -365.75439453 472.87792969 C-359.66361023 480.44887154 -353.50235285 487.95350481 -347.19970703 495.34912109 C-344.31467616 498.73736732 -341.48745149 502.16623639 -338.6875 505.625 C-335.10849877 510.02551575 -331.364577 514.23582521 -327.54296875 518.42578125 C-325.31730649 520.93208744 -323.21728439 523.50674393 -321.125 526.125 C-315.75330742 532.76006976 -309.88999893 538.90512867 -304.03076172 545.10595703 C-302.46494062 546.7750093 -300.91709773 548.45785131 -299.37890625 550.15234375 C-292.71069456 557.49361074 -285.78796024 564.53938058 -278.71777344 571.49536133 C-275.30824845 574.865267 -271.98695415 578.24862248 -268.86328125 581.88671875 C-264.76232892 586.65519964 -260.29262381 591.02815223 -255.8125 595.4375 C-254.17458036 597.04954413 -252.53912734 598.66409861 -250.90625 600.28125 C-250.19146484 600.98443359 -249.47667969 601.68761719 -248.74023438 602.41210938 C-246.8054436 604.42472761 -244.98290455 606.46286847 -243.1652832 608.578125 C-238.69408162 613.72395519 -233.88986318 618.52228088 -229.07421875 623.34375 C-228.10245294 624.31873634 -227.13075931 625.29379463 -226.15913391 626.2689209 C-224.13966736 628.294326 -222.11819528 630.31770435 -220.09545898 632.33984375 C-217.50001183 634.93518828 -214.91157128 637.53740566 -212.32474041 640.14133453 C-210.32849171 642.14866316 -208.32775386 644.15146951 -206.32569313 646.15299988 C-205.36836961 647.11150477 -204.41267026 648.07163465 -203.45862389 649.03340149 C-202.13298905 650.36877675 -200.80043041 651.69726811 -199.4675293 653.02539062 C-198.71142868 653.78291626 -197.95532806 654.54044189 -197.17631531 655.32092285 C-195.47189042 657.15590819 -195.47189042 657.15590819 -193.3125 656.9375 C-193.3125 657.5975 -193.3125 658.2575 -193.3125 658.9375 C-191.92957981 660.33572971 -191.92957981 660.33572971 -190.0625 661.8125 C-185.54684706 665.62409953 -181.44307084 669.76997727 -177.35058594 674.02490234 C-176.04054226 675.36524345 -174.68021234 676.65605875 -173.3125 677.9375 C-172.6525 677.9375 -171.9925 677.9375 -171.3125 677.9375 C-171.3125 678.5975 -171.3125 679.2575 -171.3125 679.9375 C-169.80524991 681.48168204 -169.80524991 681.48168204 -167.828125 683.078125 C-163.43637767 686.81323465 -159.24336053 690.71933211 -155.0625 694.6875 C-145.73326194 703.50393012 -136.29700623 712.19002392 -126.73828125 720.7578125 C-125.1049607 722.22543386 -123.47744457 723.69953787 -121.85546875 725.1796875 C-117.66170992 728.99699869 -113.41933896 732.69531432 -109 736.25 C-104.77851345 739.66172326 -100.77176658 743.23067966 -96.8125 746.9375 C-92.10091951 751.34490731 -87.26617322 755.5039851 -82.234375 759.546875 C-78.82310203 762.33791652 -75.50572956 765.22462477 -72.1875 768.125 C-66.63591019 772.95960805 -61.03695838 777.73250111 -55.375 782.4375 C-54.34705322 783.30024536 -54.34705322 783.30024536 -53.29833984 784.18041992 C-44.28849719 791.62452106 -37.31453391 795.9997672 -25.3125 794.9375 C-13.34549362 792.32617522 -3.50294396 782.19132016 5.234375 774.14453125 C7.77715678 771.85683745 10.39737986 769.70601805 13.0625 767.5625 C18.20508543 763.40187925 23.06201737 758.99393696 27.91015625 754.5 C30.79443553 751.83883655 33.73087133 749.25050992 36.6953125 746.6796875 C39.04770635 744.62249601 41.36784966 742.53153085 43.6875 740.4375 C47.30426345 737.17359152 50.95139608 733.94959051 54.625 730.75 C57.86816372 727.89994703 61.06546218 724.99931025 64.26953125 722.10546875 C66.2865169 720.29702443 68.32241596 718.5176266 70.375 716.75 C75.04696747 712.68453541 79.53956118 708.42734988 84.05737305 704.19262695 C87.56918967 700.90408738 91.09864517 697.64226334 94.6875 694.4375 C104.65305873 685.51139524 114.41278277 676.38520368 123.76855469 666.81958008 C126.54065783 664.00313342 129.36184243 661.32506287 132.3671875 658.7578125 C137.99707319 653.89413625 143.15303649 648.54186708 148.375 643.25 C150.39676377 641.20145367 152.42195857 639.15638681 154.44921875 637.11328125 C155.33569092 636.21520752 156.22216309 635.31713379 157.13549805 634.3918457 C159.54879795 632.07089441 162.07211331 630.02284984 164.6875 627.9375 C165.326875 627.133125 165.96625 626.32875 166.625 625.5 C168.59111075 623.05725633 170.68626642 621.26348686 173.125 619.3125 C174.79530384 617.84263262 176.15092213 616.28094262 177.5625 614.5625 C180.3264621 611.22842561 183.39139303 608.49052192 186.6796875 605.68359375 C191.05207027 601.88115193 195.02567416 597.75121149 198.77734375 593.33984375 C203.97342474 587.37331174 209.67163008 581.90835694 215.3046875 576.359375 C219.77187525 571.93292149 224.07442721 567.45388817 228.16796875 562.6796875 C230.23033841 560.31511971 232.44023176 558.1256296 234.6875 555.9375 C238.21162505 552.450471 241.55421689 548.89693701 244.77734375 545.1328125 C247.19583473 542.3532789 249.69034189 539.6460822 252.1875 536.9375 C255.83262134 532.97843006 259.43010963 528.98621269 262.953125 524.91796875 C264.96014538 522.62616845 267.01152851 520.37753248 269.0625 518.125 C272.91455299 513.857911 276.55687849 509.4564675 280.171875 504.98828125 C283.11675654 501.41692646 286.14488262 497.92554955 289.1875 494.4375 C294.47662599 488.36547412 299.62339378 482.19903035 304.6875 475.9375 C305.7401371 474.65433368 306.79358012 473.37182823 307.84765625 472.08984375 C314.04259399 464.54124717 320.12262846 456.96950147 325.6875 448.9375 C326.08565918 448.36676758 326.48381836 447.79603516 326.89404297 447.20800781 C336.51438215 433.35850779 346.37157612 419.16353181 343.2578125 401.5 C339.81393024 388.23467573 330.61053214 377.55222413 322.31005859 367.00097656 C320.8300525 365.11879005 319.36024449 363.22926055 317.89453125 361.3359375 C308.41684166 349.13019141 298.53908497 337.24209531 288.52392578 325.47509766 C285.6574312 322.10268857 282.84785649 318.68960257 280.0625 315.25 C276.43915505 310.79846192 272.66786128 306.51367545 268.8046875 302.26953125 C266.90698831 300.17926111 265.04016585 298.06763885 263.1875 295.9375 C259.8676713 292.12584482 256.48628862 288.37198295 253.09375 284.625 C251.76021016 283.13559186 250.43236594 281.64080274 249.12890625 280.125 C244.85717559 275.16553039 240.35920205 270.51970584 235.6875 265.9375 C231.80113676 262.12558817 227.96757492 258.32502454 224.42578125 254.1875 C220.00685051 249.05988465 215.22655677 244.29050125 210.44262695 239.50732422 C208.85533666 237.9178091 207.27626447 236.32040343 205.69726562 234.72265625 C204.68798793 233.71045074 203.67823996 232.69871389 202.66796875 231.6875 C201.75942139 230.77484375 200.85087402 229.8621875 199.91479492 228.921875 C197.93579157 226.71576106 197.93579157 226.71576106 195.6875 226.9375 C195.6875 226.2775 195.6875 225.6175 195.6875 224.9375 C194.6975 224.6075 193.7075 224.2775 192.6875 223.9375 C192.6781543 224.57961426 192.66880859 225.22172852 192.65917969 225.88330078 C192.040623 260.0312684 184.55804999 292.55100001 164.6875 320.9375 C163.95015625 322.0203125 163.2128125 323.103125 162.453125 324.21875 C149.31045187 343.28495654 133.12730001 360.9038953 114.6875 374.9375 C113.53579486 375.85202967 112.38480109 376.76745563 111.234375 377.68359375 C96.8979639 388.93586935 81.10794024 398.07821441 64.71069336 405.98730469 C61.53961829 407.51752886 58.39008986 409.08576659 55.24754333 410.67358398 C48.80054391 413.92846191 42.31638094 417.09043379 35.77734375 420.15625 C34.65187134 420.68396248 34.65187134 420.68396248 33.50366211 421.22233582 C30.44419838 422.65467323 27.38350334 424.08433017 24.32104492 425.51025391 C-7.98804136 440.56884705 -40.53565203 458.76173876 -53.75 494 C-57.52583708 504.98887116 -58.2494977 518.19768783 -53.3125 528.9375 C-47.74802746 538.89918504 -40.27235013 546.02323793 -29.453125 549.984375 C-14.16643001 554.27112015 1.31787753 551.92899632 15.375 544.875 C43.04855018 528.82639841 58.10423294 499.1846603 73.453125 472.359375 C80.5378243 459.98695702 87.66978582 447.73198713 95.6875 435.9375 C96.16783691 435.22803223 96.64817383 434.51856445 97.14306641 433.78759766 C118.01700373 403.12497167 143.76068766 378.49886739 177.6875 362.9375 C178.29674316 362.65777344 178.90598633 362.37804687 179.53369141 362.08984375 C207.76310266 349.39695615 239.43235201 345.8575248 268.6875 356.9375 C277.67706269 360.6127656 286.39800487 365.46621351 293.6875 371.9375 C293.6875 372.5975 293.6875 373.2575 293.6875 373.9375 C293.13513672 374.13794922 292.58277344 374.33839844 292.01367188 374.54492188 C260.16183237 386.18258651 233.44958882 402.42614287 211.9296875 429.19921875 C209.97678101 431.5842143 207.96308218 433.85930087 205.875 436.125 C197.44847449 445.51932448 190.25784796 456.05262272 182.9375 466.3125 C182.14907715 467.40981445 182.14907715 467.40981445 181.34472656 468.52929688 C180.86487305 469.20798828 180.38501953 469.88667969 179.890625 470.5859375 C179.46426758 471.18583496 179.03791016 471.78573242 178.59863281 472.40380859 C177.51725086 473.92675685 177.51725086 473.92675685 177.6875 475.9375 C181.08539769 474.81208166 184.47586131 473.66778856 187.859375 472.5 C189.38537823 471.97905407 190.91142068 471.45822301 192.4375 470.9375 C193.18515625 470.67710937 193.9328125 470.41671875 194.703125 470.1484375 C204.72465752 466.75072613 214.10695776 465.55045356 224.6875 465.5625 C225.86417236 465.56121094 227.04084473 465.55992187 228.25317383 465.55859375 C238.14651222 465.6773759 247.2163096 467.16423641 256.6875 469.9375 C255.03008317 474.28689958 251.77580477 477.02852463 248.5 480.1875 C244.32824763 484.28254485 240.28033215 488.39046117 236.4921875 492.84765625 C234.11639907 495.59883982 231.65141471 498.26557641 229.1875 500.9375 C224.94971767 505.54539432 220.76597934 510.18787849 216.6875 514.9375 C215.89085937 515.8553125 215.09421875 516.773125 214.2734375 517.71875 C199.71395871 534.60795963 186.59609001 552.77084485 173.6875 570.9375 C164.14419739 584.3586972 154.3743277 597.56673229 143.97900391 610.34179688 C142.12982486 612.62652925 140.31815508 614.94054858 138.5 617.25 C135.09452551 621.51037577 131.49425792 625.56349852 127.81640625 629.58984375 C126.02067723 631.57008804 124.28682394 633.5831535 122.5625 635.625 C115.0135764 644.28769922 106.68587643 652.59128306 97.90625 660.00390625 C94.58713354 662.89644612 91.39683118 665.92419718 88.1875 668.9375 C83.7116693 673.13423986 79.22420182 677.29634898 74.57421875 681.30078125 C72.25091213 683.31623772 69.97001535 685.37598462 67.6875 687.4375 C64.06726277 690.70454335 60.41766435 693.93270776 56.73828125 697.1328125 C54.42661203 699.16708141 52.1521857 701.2397231 49.875 703.3125 C46.33589998 706.51402433 42.71646894 709.56896063 39 712.5625 C35.90158547 715.06723231 32.95453053 717.5714111 30.1875 720.4375 C27.51708156 723.20239079 24.69154008 725.60118565 21.6875 728 C16.22518521 732.39245452 11.13102449 737.1113123 6.03198242 741.91748047 C2.32364756 745.41264899 -1.41693914 748.84211822 -5.2890625 752.15625 C-6.95762975 753.62510456 -8.58959811 755.13542491 -10.2109375 756.65625 C-10.73276611 757.14520752 -11.25459473 757.63416504 -11.79223633 758.13793945 C-12.8130136 759.09699458 -13.82888068 760.06131599 -14.83862305 761.03198242 C-19.03723497 764.96415079 -23.55855028 768.88350099 -29.5 769 C-35.15828558 766.86242545 -37.69107314 760.7953849 -40.6875 755.8125 C-49.61683672 741.27791101 -59.99547767 727.69025013 -71.3125 714.9375 C-71.90522705 714.25792236 -72.4979541 713.57834473 -73.10864258 712.87817383 C-79.57923428 705.55210434 -86.44893455 698.64864661 -93.36938477 691.75024414 C-95.37827864 689.74673014 -97.38174389 687.73789848 -99.38476562 685.72851562 C-105.52635335 679.58369002 -111.67961997 673.555741 -118.3125 667.9375 C-120.32952716 666.12202147 -122.31915424 664.27917814 -124.3125 662.4375 C-128.919233 658.19847417 -133.57409954 654.02866532 -138.3125 649.9375 C-140.77168901 647.81348826 -143.2299253 645.68837936 -145.6875 643.5625 C-146.34306885 642.9957959 -146.9986377 642.4290918 -147.67407227 641.84521484 C-151.34267305 638.66725455 -154.97343609 635.45549749 -158.5625 632.1875 C-161.87689286 629.17989392 -165.26909083 626.31320304 -168.75 623.5 C-172.55337503 620.42413412 -176.21332652 617.24996834 -179.8125 613.9375 C-184.22622211 609.88012656 -188.76787736 606.04825894 -193.43359375 602.28515625 C-196.02184967 600.17451608 -198.56570197 598.02383289 -201.10058594 595.85009766 C-207.63386385 590.25484218 -214.36709205 585.01515636 -221.3125 579.9375 C-260.64321372 551.13605773 -260.64321372 551.13605773 -273.875 537.375 C-275.50507862 535.69561554 -275.50507862 535.69561554 -278.3125 533.5 C-282.08590103 530.27688662 -285.14444156 526.74741415 -288.3125 522.9375 C-288.95880371 522.18364014 -288.95880371 522.18364014 -289.61816406 521.41455078 C-314.6746828 492.13028266 -322.81531198 460.87808903 -323.3125 422.9375 C-322.3225 422.9375 -321.3325 422.9375 -320.3125 422.9375 C-319.8175 424.4225 -319.8175 424.4225 -319.3125 425.9375 C-318.6525 425.9375 -317.9925 425.9375 -317.3125 425.9375 C-317.08433594 426.51113281 -316.85617187 427.08476563 -316.62109375 427.67578125 C-314.95850403 430.54933183 -312.98148597 432.07197159 -310.375 434.125 C-309.385 434.91132812 -308.395 435.69765625 -307.375 436.5078125 C-306.364375 437.30960938 -305.35375 438.11140625 -304.3125 438.9375 C-302.49909643 440.45725583 -300.68657569 441.97806577 -298.875 443.5 C-293.84454921 447.61067779 -288.58013935 451.19344109 -283.14257812 454.73876953 C-263.84144757 467.38131903 -244.07776708 480.97974274 -229.3125 498.9375 C-228.86036133 499.47729492 -228.40822266 500.01708984 -227.94238281 500.57324219 C-215.62727916 515.28054488 -204.84693203 530.92609556 -194.3125 546.9375 C-193.08944282 543.32789649 -193.48683785 540.47328075 -194.0546875 536.73828125 C-194.23386719 535.52849609 -194.41304687 534.31871094 -194.59765625 533.07226562 C-194.79230469 531.81091797 -194.98695313 530.54957031 -195.1875 529.25 C-195.56115657 526.76711649 -195.93357943 524.28404696 -196.3046875 521.80078125 C-196.47339355 520.70032471 -196.64209961 519.59986816 -196.81591797 518.46606445 C-197.8062238 511.4292453 -198.47244387 504.52239718 -198.515625 497.4140625 C-198.52268463 496.63452713 -198.52974426 495.85499176 -198.53701782 495.05183411 C-198.7634434 462.73189602 -198.7634434 462.73189602 -195.3125 448.9375 C-195.11914062 448.12716309 -194.92578125 447.31682617 -194.7265625 446.48193359 C-183.36703255 399.89558971 -154.23130121 359.27435142 -115.40869141 331.44384766 C-113.32309678 329.94511497 -111.25969844 328.41974689 -109.19921875 326.88671875 C-100.79444987 320.67636074 -92.17892091 314.81305881 -83.46411133 309.04995728 C-68.36002186 299.06090704 -53.79498354 288.96827156 -40.75585938 276.33398438 C-39.40621898 275.02817534 -38.03962998 273.73994773 -36.671875 272.453125 C-23.58972009 259.86463631 -13.25481665 244.48623556 -3.3125 229.375 C3.85509704 218.5142397 11.75007611 208.41509786 20.6875 198.9375 C21.30882812 198.26332031 21.93015625 197.58914063 22.5703125 196.89453125 C30.96310252 188.09790405 40.82716564 181.28891547 51.125 174.9375 C51.88216309 174.46852295 52.63932617 173.9995459 53.41943359 173.51635742 C64.36200314 166.91174375 64.36200314 166.91174375 70.6875 167.9375 C73.43062698 170.93580158 74.58386015 174.03912833 75.8125 177.875 C76.31136719 179.40447266 76.31136719 179.40447266 76.8203125 180.96484375 C84.56967032 207.52908384 74.87194419 235.8546791 62.42480469 259.29125977 C56.24099433 270.52825843 48.45681987 280.26356315 39.76171875 289.671875 C37.87504031 291.73265371 36.09477574 293.8494155 34.3125 296 C30.77857796 300.05505341 26.75154184 303.33405188 22.54296875 306.66796875 C20.74736053 308.09512111 18.97487671 309.55237911 17.23828125 311.05078125 C-2.79052567 328.24977244 -27.25642481 340.34420929 -50.1875 353.125 C-87.29459655 373.52989366 -87.29459655 373.52989366 -119.3125 400.9375 C-124.3125 405.9375 -124.3125 405.9375 -126.01171875 407.49609375 C-147.54998991 427.81109596 -160.94470894 457.63917439 -162.42285156 487.13989258 C-163.65657713 536.08638604 -147.94808051 580.18138729 -114.3125 615.83984375 C-107.06554845 623.39718187 -99.00223781 629.84462395 -90.75390625 636.25390625 C-85.86346794 640.05638064 -81.07131993 643.97181673 -76.3125 647.9375 C-75.77657227 648.38174316 -75.24064453 648.82598633 -74.68847656 649.28369141 C-58.05218732 663.11563183 -43.59652945 677.9054392 -32.21582031 696.40795898 C-30.47467537 699.22925866 -28.80621422 701.73212148 -26.3125 703.9375 C-25.59449219 703.30585937 -24.87648438 702.67421875 -24.13671875 702.0234375 C-15.38349675 694.42180314 -6.1747472 687.55266484 3.20263672 680.74462891 C7.27283191 677.78455966 11.32402781 674.79879625 15.375 671.8125 C16.1594751 671.23443604 16.9439502 670.65637207 17.75219727 670.06079102 C76.74345414 628.26008568 76.74345414 628.26008568 107.30859375 565.26171875 C109.4560665 550.77834719 109.4276425 537.18566191 105.6875 522.9375 C105.0275 522.9375 104.3675 522.9375 103.6875 522.9375 C103.37039063 523.56914063 103.05328125 524.20078125 102.7265625 524.8515625 C85.68933057 557.51410107 55.99543892 587.08928999 20.6875 598.9375 C-6.99118025 607.29999488 -37.46549978 605.20334448 -63.3125 591.9375 C-87.70064043 578.01683577 -104.68685043 556.98684151 -112.50390625 529.91796875 C-120.07863172 501.11407848 -115.40486432 473.55469994 -101.625 447.78125 C-97.15459923 440.30192564 -91.33423553 434.16960183 -85.3125 427.9375 C-84.64347656 427.21691406 -83.97445313 426.49632812 -83.28515625 425.75390625 C-67.24027634 408.89490981 -45.48175518 396.1580107 -25.62402344 384.32666016 C-21.3251085 381.74313396 -17.0719768 379.08535608 -12.8125 376.4375 C-7.77346072 373.30692339 -2.73332997 370.18071003 2.3515625 367.125 C43.81861493 342.18258148 82.85314179 312.18600491 107.6875 269.9375 C108.05117676 269.32148926 108.41485352 268.70547852 108.78955078 268.07080078 C123.92061384 242.08894309 132.44480829 210.14171296 125.04638672 180.35644531 C116.15574557 148.28894414 94.56540254 123.73644475 69.84985352 102.34716797 C64.89428321 98.04857926 60.11881236 93.59256817 55.375 89.0625 C49.87033684 83.83939308 44.31230758 78.86885397 38.37109375 74.1484375 C33.96860261 70.52134873 29.84299239 66.59908807 25.671875 62.7109375 C22.08350072 59.36610793 18.41004864 56.13202756 14.6875 52.9375 C14.19701172 52.51533203 13.70652344 52.09316406 13.20117188 51.65820312 C9.64385495 48.59647462 6.07833872 45.54452368 2.50878906 42.49707031 C0.73768582 40.98047413 -1.02629085 39.45595312 -2.7890625 37.9296875 C-15.20801487 26.53218147 -15.20801487 26.53218147 -30.9375 22.6796875 C-43.88133159 24.08477448 -57.04765237 39.27326364 -66.64746094 47.51074219 Z " fill="#7DCFE6" transform="translate(541.3125,103.0625)"/>
<path d="M0 0 C3.98654828 1.32884943 5.51007237 3.94531678 7.9375 7.1875 C11.86464739 12.3142052 15.8945006 17.30787636 20.125 22.1875 C25.187731 28.04348114 30.16244537 33.95519722 35 40 C35.80050781 40.99257813 36.60101563 41.98515625 37.42578125 43.0078125 C61.02048557 72.66248483 71.66519813 104.11469323 71.25 141.9375 C71.23807814 144.02221209 71.2270162 146.10692926 71.21679688 148.19165039 C71.12421978 162.8057595 70.81641274 177.4066222 70 192 C64.73111759 188.19587882 59.8728689 184.18655014 55.1875 179.6875 C51.16502371 175.82842179 47.04730196 172.19916235 42.69921875 168.70703125 C11.96225215 143.76264903 -11.41968575 112.21912364 -16.46484375 72.32421875 C-16.73692492 69.21205744 -16.90088714 66.12205504 -17 63 C-17.0515625 62.06671875 -17.103125 61.1334375 -17.15625 60.171875 C-17.8599305 38.70961975 -10.64223959 18.31329554 0 0 Z " fill="#7DCFE6" transform="translate(258,394)"/>
<path d="M0 0 C0.99 0.33 1.98 0.66 3 1 C-1.67466337 6.62303757 -6.67765667 11.79741554 -11.875 16.9375 C-12.65875 17.71673828 -13.4425 18.49597656 -14.25 19.29882812 C-16.16438581 21.20154085 -18.08108034 23.10186171 -20 25 C-20.66 24.01 -21.32 23.02 -22 22 C-21.01 21.67 -20.02 21.34 -19 21 C-18.67 20.01 -18.34 19.02 -18 18 C-17.34 18 -16.68 18 -16 18 C-15.67 17.01 -15.34 16.02 -15 15 C-14.34 15 -13.68 15 -13 15 C-12.67 14.01 -12.34 13.02 -12 12 C-11.34 12 -10.68 12 -10 12 C-9.34 10.68 -8.68 9.36 -8 8 C-7.34 8 -6.68 8 -6 8 C-5.7525 7.4225 -5.505 6.845 -5.25 6.25 C-3.83316683 3.6997003 -2.12372463 1.98214299 0 0 Z " fill="#87D3E9" transform="translate(722,713)"/>
<path d="M0 0 C0.99 0.33 1.98 0.66 3 1 C-4.26 8.26 -11.52 15.52 -19 23 C-19.66 22.34 -20.32 21.68 -21 21 C-14 14 -7 7 0 0 Z " fill="#71CAE4" transform="translate(457,221)"/>
<path d="M0 0 C0.76953125 1.703125 0.76953125 1.703125 1 4 C-0.80078125 6.359375 -0.80078125 6.359375 -3.3125 8.75 C-4.54419922 9.94882812 -4.54419922 9.94882812 -5.80078125 11.171875 C-8 13 -8 13 -10 13 C-10.2475 13.598125 -10.495 14.19625 -10.75 14.8125 C-12.16370012 17.28647521 -13.65055383 18.43370255 -16 20 C-16.66 19.67 -17.32 19.34 -18 19 C-17.52578613 18.53102295 -17.05157227 18.0620459 -16.56298828 17.57885742 C-14.41436915 15.45103477 -12.26965202 13.31932077 -10.125 11.1875 C-9.37863281 10.44951172 -8.63226562 9.71152344 -7.86328125 8.95117188 C-7.14785156 8.23896484 -6.43242188 7.52675781 -5.6953125 6.79296875 C-5.03547363 6.1383667 -4.37563477 5.48376465 -3.69580078 4.80932617 C-1.81831708 2.9054354 -1.81831708 2.9054354 0 0 Z " fill="#89D4EA" transform="translate(782,651)"/>
<path d="M0 0 C-0.55550695 3.59905908 -1.74887248 4.99909799 -4.5625 7.25 C-5.20316406 7.77078125 -5.84382812 8.2915625 -6.50390625 8.828125 C-6.99761719 9.21484375 -7.49132812 9.6015625 -8 10 C-8.33 9.01 -8.66 8.02 -9 7 C-7.88121617 5.82737096 -6.75476949 4.66204862 -5.625 3.5 C-4.68527344 2.52546875 -4.68527344 2.52546875 -3.7265625 1.53125 C-2 0 -2 0 0 0 Z " fill="#8ED6EB" transform="translate(671,765)"/>
<path d="M0 0 C3.36720387 1.39332574 4.9859524 2.9789286 7 6 C4 6 4 6 1.8125 4.125 C0 2 0 2 0 0 Z " fill="#8ED6EA" transform="translate(235,690)"/>
</svg>
